{
  "accessors": [
    {
      "bufferView": 2,
      "componentType": 5126,
      "count": 791,
      "max": [
        103.33773803710938,
        273.07476806640625,
        136.03050231933594
      ],
      "min": [
        -133.099853515625,
        -231.48585510253906,
        -136.1792449951172
      ],
      "type": "VEC3"
    },
    {
      "bufferView": 2,
      "byteOffset": 9492,
      "componentType": 5126,
      "count": 791,
      "max": [
        0.9999125599861145,
        0.9509844779968262,
        0.9999175071716309
      ],
      "min": [
        -0.9992917776107788,
        -1.0,
        -0.9998778104782104
      ],
      "type": "VEC3"
    },
    {
      "bufferView": 3,
      "componentType": 5126,
      "count": 791,
      "max": [
        0.9897841811180115,
        0.9900224208831787,
        0.9953173995018005,
        1.0
      ],
      "min": [
        -0.9983752965927124,
        -0.9992328882217407,
        -0.9757172465324402,
        -1.0
      ],
      "type": "VEC4"
    },
    {
      "bufferView": 1,
      "componentType": 5126,
      "count": 791,
      "max": [
        0.9955066442489624,
        0.9995754957199097
      ],
      "min": [
        0.0056543052196502686,
        0.00934988260269165
      ],
      "type": "VEC2"
    },
    {
      "bufferView": 0,
      "componentType": 5125,
      "count": 3312,
      "type": "SCALAR"
    },
    {
      "bufferView": 2,
      "byteOffset": 18984,
      "componentType": 5126,
      "count": 809,
      "max": [
        75.94877624511719,
        280.20172119140625,
        123.59159851074219
      ],
      "min": [
        -109.19677734375,
        -231.4858856201172,
        -122.42852783203125
      ],
      "type": "VEC3"
    },
    {
      "bufferView": 2,
      "byteOffset": 28692,
      "componentType": 5126,
      "count": 809,
      "max": [
        0.9999125599861145,
        0.9931586384773254,
        0.9999617338180542
      ],
      "min": [
        -0.9992917776107788,
        -1.0,
        -0.9999428987503052
      ],
      "type": "VEC3"
    },
    {
      "bufferView": 3,
      "byteOffset": 12656,
      "componentType": 5126,
      "count": 809,
      "max": [
        0.9964508414268494,
        0.9988666772842407,
        0.9953173995018005,
        1.0
      ],
      "min": [
        -0.9983751177787781,
        -0.9999642372131348,
        -0.9757172465324402,
        -1.0
      ],
      "type": "VEC4"
    },
    {
      "bufferView": 1,
      "byteOffset": 6328,
      "componentType": 5126,
      "count": 809,
      "max": [
        0.9955066442489624,
        0.9995754957199097
      ],
      "min": [
        0.0056543052196502686,
        0.00934988260269165
      ],
      "type": "VEC2"
    },
    {
      "bufferView": 0,
      "byteOffset": 13248,
      "componentType": 5125,
      "count": 3408,
      "type": "SCALAR"
    },
    {
      "bufferView": 2,
      "byteOffset": 38400,
      "componentType": 5126,
      "count": 790,
      "max": [
        115.7073974609375,
        257.9729919433594,
        136.1922607421875
      ],
      "min": [
        -141.25698852539063,
        -231.48585510253906,
        -138.08523559570313
      ],
      "type": "VEC3"
    },
    {
      "bufferView": 2,
      "byteOffset": 47880,
      "componentType": 5126,
      "count": 790,
      "max": [
        0.9999125599861145,
        0.9595416188240051,
        0.9998767375946045
      ],
      "min": [
        -0.9992917776107788,
        -1.0,
        -0.9998778104782104
      ],
      "type": "VEC3"
    },
    {
      "bufferView": 3,
      "byteOffset": 25600,
      "componentType": 5126,
      "count": 790,
      "max": [
        0.9897841811180115,
        0.9934653639793396,
        0.9953173995018005,
        1.0
      ],
      "min": [
        -0.9983752965927124,
        -0.9992328882217407,
        -0.9757172465324402,
        -1.0
      ],
      "type": "VEC4"
    },
    {
      "bufferView": 1,
      "byteOffset": 12800,
      "componentType": 5126,
      "count": 790,
      "max": [
        0.9955066442489624,
        0.9995754957199097
      ],
      "min": [
        0.0056543052196502686,
        0.00934988260269165
      ],
      "type": "VEC2"
    },
    {
      "bufferView": 0,
      "byteOffset": 26880,
      "componentType": 5125,
      "count": 3312,
      "type": "SCALAR"
    }
  ],
  "asset": {
    "extras": {
      "author": "artikora (https://sketchfab.com/artikora978)",
      "license": "CC-BY-4.0 (http://creativecommons.org/licenses/by/4.0/)",
      "source": "https://sketchfab.com/3d-models/glowing-mushroom-3307733b41c2477e8ec5c854939fbbd6",
      "title": "Glowing Mushroom"
    },
    "generator": "Sketchfab-16.14.0",
    "version": "2.0"
  },
  "bufferViews": [
    {
      "buffer": 0,
      "byteLength": 40128,
      "name": "floatBufferViews",
      "target": 34963
    },
    {
      "buffer": 0,
      "byteLength": 19120,
      "byteOffset": 40128,
      "byteStride": 8,
      "name": "floatBufferViews",
      "target": 34962
    },
    {
      "buffer": 0,
      "byteLength": 57360,
      "byteOffset": 59248,
      "byteStride": 12,
      "name": "floatBufferViews",
      "target": 34962
    },
    {
      "buffer": 0,
      "byteLength": 38240,
      "byteOffset": 116608,
      "byteStride": 16,
      "name": "floatBufferViews",
      "target": 34962
    }
  ],
  "buffers": [
    {
      "byteLength": 154848,
      "uri": "scene.bin"
    }
  ],
  "images": [
    {
      "uri": "textures/lambert1_baseColor.png"
    },
    {
      "uri": "textures/lambert1_metallicRoughness.png"
    },
    {
      "uri": "textures/lambert1_emissive.png"
    },
    {
      "uri": "textures/lambert1_normal.png"
    }
  ],
  "materials": [
    {
      "doubleSided": true,
      "emissiveFactor": [
        1.0,
        1.0,
        1.0
      ],
      "emissiveTexture": {
        "index": 2
      },
      "name": "lambert1",
      "normalTexture": {
        "index": 3
      },
      "pbrMetallicRoughness": {
        "baseColorTexture": {
          "index": 0
        },
        "metallicRoughnessTexture": {
          "index": 1
        }
      }
    }
  ],
  "meshes": [
    {
      "name": "pCone2_lambert1_0",
      "primitives": [
        {
          "attributes": {
            "NORMAL": 1,
            "POSITION": 0,
            "TANGENT": 2,
            "TEXCOORD_0": 3
          },
          "indices": 4,
          "material": 0,
          "mode": 4
        }
      ]
    },
    {
      "name": "pCone3_lambert1_0",
      "primitives": [
        {
          "attributes": {
            "NORMAL": 6,
            "POSITION": 5,
            "TANGENT": 7,
            "TEXCOORD_0": 8
          },
          "indices": 9,
          "material": 0,
          "mode": 4
        }
      ]
    },
    {
      "name": "pCone4_lambert1_0",
      "primitives": [
        {
          "attributes": {
            "NORMAL": 11,
            "POSITION": 10,
            "TANGENT": 12,
            "TEXCOORD_0": 13
          },
          "indices": 14,
          "material": 0,
          "mode": 4
        }
      ]
    }
  ],
  "nodes": [
    {
      "children": [
        1
      ],
      "matrix": [
        1.0,
        0.0,
        0.0,
        0.0,
        0.0,
        2.220446049250313e-16,
        -1.0,
        0.0,
        0.0,
        1.0,
        2.220446049250313e-16,
        0.0,
        0.0,
        0.0,
        0.0,
        1.0
      ],
      "name": "Sketchfab_model"
    },
    {
      "children": [
        2
      ],
      "matrix": [
        1.0,
        0.0,
        0.0,
        0.0,
        0.0,
        0.0,
        1.0,
        0.0,
        0.0,
        -1.0,
        0.0,
        0.0,
        0.0,
        0.0,
        0.0,
        1.0
      ],
      "name": "8c814ba1d1fb422d90b56b5661c3ebc0.fbx"
    },
    {
      "children": [
        3,
        5,
        7
      ],
      "name": "RootNode"
    },
    {
      "children": [
        4
      ],
      "matrix": [
        0.009999999776482582,
        0.0,
        0.0,
        0.0,
        0.0,
        0.009999999776482582,
        0.0,
        0.0,
        0.0,
        0.0,
        0.009999999776482582,
        0.0,
        0.0,
        0.0,
        0.0,
        1.0
      ],
      "name": "pCone2"
    },
    {
      "mesh": 0,
      "name": "pCone2_lambert1_0"
    },
    {
      "children": [
        6
      ],
      "matrix": [
        0.004895531110786718,
        0.004708285054964744,
        -0.003358661151310399,
        0.0,
        -0.004026901411353559,
        0.005933423712716389,
        0.0024481270010806785,
        0.0,
        0.004151218846479281,
        0.00020325508942508437,
        0.006335680484530823,
        0.0,
        -0.7160683870315552,
        -0.7908188700675964,
        0.793170154094696,
        1.0
      ],
      "name": "pCone3"
    },
    {
      "mesh": 1,
      "name": "pCone3_lambert1_0"
    },
    {
      "children": [
        8
      ],
      "matrix": [
        -0.013077549021062732,
        -0.00011012323095946165,
        0.006643141215448086,
        0.0,
        0.0012347440065646087,
        0.014370735624898089,
        0.0026689146802058744,
        0.0,
        -0.006528312153430992,
        0.0029386342416110062,
        -0.012802785242050942,
        0.0,
        0.6076124310493469,
        1.1204687356948853,
        0.5800090432167053,
        1.0
      ],
      "name": "pCone4"
    },
    {
      "mesh": 2,
      "name": "pCone4_lambert1_0"
    }
  ],
  "samplers": [
    {
      "magFilter": 9729,
      "minFilter": 9987,
      "wrapS": 10497,
      "wrapT": 10497
    }
  ],
  "scene": 0,
  "scenes": [
    {
      "name": "Sketchfab_Scene",
      "nodes": [
        0
      ]
    }
  ],
  "textures": [
    {
      "sampler": 0,
      "source": 0
    },
    {
      "sampler": 0,
      "source": 1
    },
    {
      "sampler": 0,
      "source": 2
    },
    {
      "sampler": 0,
      "source": 3
    }
  ]
}
